##     ## #### ##     ## ########          ######  ##     ##  #######  
##     ##  ##  ##     ## ##               ##    ## ###   ### ##     ## 
##     ##  ##  ##     ## ##               ##       #### #### ##     ## 
#########  ##  ##     ## ######   ####### ##       ## ### ##  #######  
##     ##  ##   ##   ##  ##               ##       ##     ## ##     ## 
##     ##  ##    ## ##   ##               ##    ## ##     ## ##     ## 
##     ## ####    ###    ########          ######  ##     ##  #######  

###########  Thx Hive - CM8 Doing It Right The First Time  ###########


21.and.Over.2013.HDRip.XVID.AC3.5.1.HQ.Hive-CM8


Video.: 720x304 @bitrate 1700 2pass
Audio.: English AC3 5.1 @384 (yeah a real one, not a bogus upmix)
Sample: Yes, included


IMDb..: http://www.imdb.com/title/tt1711425/


ENCODE
unlike the others i got the real 1080p web-dl and the quality was great, also came along with
a russian 5.1 track. added brightness, sharpness, rgb and denoise. even though line was great
and in sync i did a thorough cleanup. Cleaned the russian audio track from voice and entered
the line back into it. so audio is in full shape now, and music and effects are inside where
they belong.
got great
enjoy


Other Notes: 

Sorry for our Previous Release, we didnt checked and tested it, 
next time before releasing any torrent we will fully check and test it, 
aplogize for our side.


SOURCES
Video.: 1080p Web-DL
Audio.: Millenium(echo)-thx, +Russian 5.1 Track


General
Complete name                  : 21.&.Over.2013.HDRip.XVID.AC3.5.1.HQ.Hive-CM8.avi
Format                         : AVI
Format/Info                    : Audio Video Interleave
File size                      : 1.30 GiB
Duration                       : 1h 29mn
Overall bit rate               : 2 090 Kbps
Writing application            : Nandub v1.0rc2
Writing library                : Nandub build 1853/release

Video
ID                             : 0
Format                         : MPEG-4 Visual
Format profile                 : Advanced Simple@L5
Format settings, BVOP          : 2
Format settings, QPel          : Yes
Format settings, GMC           : No warppoints
Format settings, Matrix        : Default (H.263)
Muxing mode                    : Packed bitstream
Codec ID                       : XVID
Codec ID/Hint                  : XviD
Duration                       : 1h 29mn
Bit rate                       : 1 697 Kbps
Width                          : 720 pixels
Height                         : 400 pixels
Display aspect ratio           : 16:9
Frame rate                     : 25.000 fps
Color space                    : YUV
Chroma subsampling             : 4:2:0
Bit depth                      : 8 bits
Scan type                      : Progressive
Compression mode               : Lossy
Bits/(Pixel*Frame)             : 0.236
Stream size                    : 1.06 GiB (81%)
Writing library                : XviD 1.2.1 (UTC 2008-12-04)

Audio
ID                             : 1
Format                         : AC-3
Format/Info                    : Audio Coding 3
Mode extension                 : CM (complete main)
Format settings, Endianness    : Big
Codec ID                       : 2000
Duration                       : 1h 29mn
Bit rate mode                  : Constant
Bit rate                       : 384 Kbps
Channel(s)                     : 6 channels
Channel positions              : Front: L C R, Side: L R, LFE
Sampling rate                  : 48.0 KHz
Bit depth                      : 16 bits
Compression mode               : Lossy
Stream size                    : 245 MiB (18%)
Alignment                      : Split accross interleaves
Interleave, duration           : 40 ms (1.00 video frame)
Interleave, preload duration   : 500 ms


PLOT
The night before his big medical school interview, a promising student
celebrates his 21st birthday with his two best friends.


CAST
Miles Teller     ...     Miller
Justin Chon      ...     Jeff Chang
Sarah Wright     ...     Nicole


GREETZ
ViSiON,SPK,SceneLovers,PRESTiGE,SANTi,3LT0N,YanKeeS,COPYxRIGHT,THC,T0XiC
D2U,LKRG,ADTRG,Feel-Free,KoDeKinG,FLAWL3SS,WBZ,BHRG,26K,NOVA,MAGNET
Unevano,BigVik,Rapeseed,SAFC,goldadvance,KaN1vE,Pinnz,Wayne,TED
SeeN,jtr,Limey,ICONiK,4PlayHD,THEDEN-RG,eXceSs,AKS74u,HiGH
Mr Hive,trepario,stallone,and most P2P groups
Great Work Guys!

LOOKING FOR ANYTHING YOU WANT TO LOOK AND SOUND BETTER

CM8@hushmail.com


Poster:

 
http://i.imgur.com/yVjLoqn.jpg


Screenshots:

 
http://i.imgur.com/Z6VU4gZ.jpg


SEED AND ENJOY!